<svg width="25" height="25" viewBox="0 0 25 25" fill="none" xmlns="http://www.w3.org/2000/svg">
<path fill-rule="evenodd" clip-rule="evenodd" d="M0 5C0 3.67392 0.526784 2.40215 1.46447 1.46447C2.40215 0.526784 3.67392 0 5 0H20C21.3261 0 22.5979 0.526784 23.5355 1.46447C24.4732 2.40215 25 3.67392 25 5V20C25 21.3261 24.4732 22.5979 23.5355 23.5355C22.5979 24.4732 21.3261 25 20 25H5C3.67392 25 2.40215 24.4732 1.46447 23.5355C0.526784 22.5979 0 21.3261 0 20V5ZM5 2.5C4.33696 2.5 3.70107 2.76339 3.23223 3.23223C2.76339 3.70107 2.5 4.33696 2.5 5V20C2.5 20.663 2.76339 21.2989 3.23223 21.7678C3.70107 22.2366 4.33696 22.5 5 22.5H12.5V13.75H11.25C10.9185 13.75 10.6005 13.6183 10.3661 13.3839C10.1317 13.1495 10 12.8315 10 12.5C10 12.1685 10.1317 11.8505 10.3661 11.6161C10.6005 11.3817 10.9185 11.25 11.25 11.25H12.5V9.375C12.5 8.21468 12.9609 7.10188 13.7814 6.28141C14.6019 5.46094 15.7147 5 16.875 5H17.625C17.9565 5 18.2745 5.1317 18.5089 5.36612C18.7433 5.60054 18.875 5.91848 18.875 6.25C18.875 6.58152 18.7433 6.89946 18.5089 7.13388C18.2745 7.3683 17.9565 7.5 17.625 7.5H16.875C16.6288 7.5 16.385 7.5485 16.1575 7.64273C15.93 7.73695 15.7233 7.87506 15.5492 8.04917C15.3751 8.22328 15.237 8.42998 15.1427 8.65747C15.0485 8.88495 15 9.12877 15 9.375V11.25H17.625C17.9565 11.25 18.2745 11.3817 18.5089 11.6161C18.7433 11.8505 18.875 12.1685 18.875 12.5C18.875 12.8315 18.7433 13.1495 18.5089 13.3839C18.2745 13.6183 17.9565 13.75 17.625 13.75H15V22.5H20C20.663 22.5 21.2989 22.2366 21.7678 21.7678C22.2366 21.2989 22.5 20.663 22.5 20V5C22.5 4.33696 22.2366 3.70107 21.7678 3.23223C21.2989 2.76339 20.663 2.5 20 2.5H5Z" fill="white"/>
</svg>
