<svg width="26" height="25" viewBox="0 0 26 25" fill="none" xmlns="http://www.w3.org/2000/svg">
<path fill-rule="evenodd" clip-rule="evenodd" d="M0.512939 5C0.512939 3.67392 1.03972 2.40215 1.97741 1.46447C2.91509 0.526784 4.18686 0 5.51294 0H20.5129C21.839 0 23.1108 0.526784 24.0485 1.46447C24.9862 2.40215 25.5129 3.67392 25.5129 5V20C25.5129 21.3261 24.9862 22.5979 24.0485 23.5355C23.1108 24.4732 21.839 25 20.5129 25H5.51294C4.18686 25 2.91509 24.4732 1.97741 23.5355C1.03972 22.5979 0.512939 21.3261 0.512939 20V5ZM5.51294 2.5C4.8499 2.5 4.21401 2.76339 3.74517 3.23223C3.27633 3.70107 3.01294 4.33696 3.01294 5V20C3.01294 20.663 3.27633 21.2989 3.74517 21.7678C4.21401 22.2366 4.8499 22.5 5.51294 22.5H20.5129C21.176 22.5 21.8119 22.2366 22.2807 21.7678C22.7495 21.2989 23.0129 20.663 23.0129 20V5C23.0129 4.33696 22.7495 3.70107 22.2807 3.23223C21.8119 2.76339 21.176 2.5 20.5129 2.5H5.51294ZM13.0129 8.75C12.0184 8.75 11.0645 9.14509 10.3613 9.84835C9.65803 10.5516 9.26294 11.5054 9.26294 12.5C9.26294 13.4946 9.65803 14.4484 10.3613 15.1517C11.0645 15.8549 12.0184 16.25 13.0129 16.25C14.0075 16.25 14.9613 15.8549 15.6646 15.1517C16.3679 14.4484 16.7629 13.4946 16.7629 12.5C16.7629 11.5054 16.3679 10.5516 15.6646 9.84835C14.9613 9.14509 14.0075 8.75 13.0129 8.75ZM6.76294 12.5C6.76294 10.8424 7.42142 9.25269 8.59352 8.08058C9.76562 6.90848 11.3553 6.25 13.0129 6.25C14.6705 6.25 16.2603 6.90848 17.4324 8.08058C18.6045 9.25269 19.2629 10.8424 19.2629 12.5C19.2629 14.1576 18.6045 15.7473 17.4324 16.9194C16.2603 18.0915 14.6705 18.75 13.0129 18.75C11.3553 18.75 9.76562 18.0915 8.59352 16.9194C7.42142 15.7473 6.76294 14.1576 6.76294 12.5ZM19.8879 7.5C20.3852 7.5 20.8621 7.30246 21.2138 6.95083C21.5654 6.5992 21.7629 6.12228 21.7629 5.625C21.7629 5.12772 21.5654 4.6508 21.2138 4.29917C20.8621 3.94754 20.3852 3.75 19.8879 3.75C19.3907 3.75 18.9137 3.94754 18.5621 4.29917C18.2105 4.6508 18.0129 5.12772 18.0129 5.625C18.0129 6.12228 18.2105 6.5992 18.5621 6.95083C18.9137 7.30246 19.3907 7.5 19.8879 7.5Z" fill="white"/>
</svg>
