<svg width="30" height="25" viewBox="0 0 30 25" fill="none" xmlns="http://www.w3.org/2000/svg">
<path fill-rule="evenodd" clip-rule="evenodd" d="M19.0502 2.85701C18.3976 2.85674 17.7531 3.00135 17.1633 3.28041C16.5734 3.55946 16.0528 3.96601 15.6392 4.47069C15.2255 4.97537 14.9291 5.5656 14.7712 6.19877C14.6134 6.83194 14.5981 7.49226 14.7264 8.13206C14.7706 8.35375 14.7616 8.58275 14.7 8.80026C14.6385 9.01776 14.5262 9.21755 14.3724 9.38321C14.2186 9.54886 14.0277 9.67565 13.8153 9.75315C13.603 9.83065 13.3753 9.85664 13.1509 9.82899C10.0795 9.4517 7.18411 8.18913 4.81766 6.19516C4.86194 7.05506 5.16047 7.96923 5.80754 8.92625L6.77741 10.3604L5.18476 11.0388L4.87765 11.1703C5.10619 11.4317 5.38045 11.6988 5.68755 11.963C6.09809 12.3144 6.5324 12.637 6.98739 12.9286L7.0031 12.9386H7.00453L9.21568 14.2799L6.90168 15.4369C6.78741 15.494 6.67314 15.5454 6.55887 15.5911C7.05644 16.0046 7.60458 16.3531 8.19009 16.6281L10.1756 17.5666L8.51291 19.0007C7.60588 19.7835 6.69314 20.3677 5.509 20.6762C7.32511 21.6436 9.35201 22.1475 11.4097 22.1432C18.2746 22.1432 23.8024 16.6653 23.8024 9.95327V9.2105L24.4095 8.78341C25.358 8.11778 26.0279 7.21789 26.5078 6.18802H23.4225L23.034 5.37384C22.6762 4.6206 22.1121 3.98429 21.4072 3.53879C20.7023 3.0933 19.8855 2.85689 19.0516 2.85701H19.0502ZM2.93789 13.2843C2.8031 13.4386 2.70311 13.6202 2.6447 13.8166C2.58628 14.0131 2.57082 14.2198 2.59936 14.4227C2.76077 15.5669 3.44497 16.5524 4.20202 17.3052C4.40771 17.5095 4.62768 17.7052 4.85908 17.8923L4.75195 17.9208C4.0649 18.0923 3.13787 18.128 1.59378 17.978C1.30218 17.9494 1.00884 18.0111 0.75353 18.1549C0.498217 18.2986 0.293281 18.5174 0.166508 18.7815C0.0397359 19.0457 -0.00273969 19.3424 0.0448402 19.6315C0.0924201 19.9206 0.227754 20.1881 0.432492 20.3977C1.86199 21.8588 3.56966 23.0188 5.45475 23.8093C7.33985 24.5997 9.36416 25.0046 11.4083 25C19.5687 25 26.2621 18.6636 26.6407 10.6675C28.4833 9.12051 29.4046 7.02506 29.9017 5.12101C29.9569 4.90968 29.963 4.68849 29.9194 4.47445C29.8758 4.26041 29.7837 4.05923 29.6501 3.88637C29.5166 3.71351 29.3452 3.57358 29.1491 3.47734C28.953 3.3811 28.7374 3.33112 28.519 3.33123H25.158C24.3359 2.05471 23.1344 1.06786 21.7225 0.509347C20.3106 -0.0491648 18.7592 -0.151263 17.2863 0.217399C15.8134 0.586062 14.493 1.40695 13.5107 2.56473C12.5284 3.7225 11.9335 5.15895 11.8096 6.67225C9.17663 5.98683 6.82074 4.50224 5.0662 2.42278C4.91082 2.23906 4.71154 2.09757 4.48687 2.01144C4.2622 1.92531 4.01941 1.89734 3.78104 1.93011C3.54266 1.96288 3.31643 2.05534 3.12333 2.1989C2.93024 2.34246 2.77654 2.53247 2.6765 2.75131C1.81089 4.63964 1.6452 6.81651 2.61079 9.03052L2.27655 9.17336C1.95669 9.30966 1.69753 9.55793 1.54764 9.87164C1.39776 10.1854 1.36743 10.543 1.46236 10.8774C1.72804 11.8087 2.32511 12.6315 2.93647 13.2843H2.93789Z" fill="white"/>
</svg>
